<svg version="1.1" xmlns="http://www.w3.org/2000/svg" xmlns:xlink="http://www.w3.org/1999/xlink" width="174.8186" height="89.04006" viewBox="0,0,174.8186,89.04006"><g transform="translate(-193.32032,-118.95555)"><g data-paper-data="{&quot;isPaintingLayer&quot;:true}" fill-rule="nonzero" stroke="none" stroke-width="0.5" stroke-linecap="butt" stroke-linejoin="miter" stroke-miterlimit="10" stroke-dasharray="" stroke-dashoffset="0" style="mix-blend-mode: normal"><path d="M367.66306,197.82374c0.17225,-0.17225 0.3445,-0.17666 0.47586,-0.13589c-0.00193,0.00549 -0.00385,0.01098 -0.00577,0.01646c-0.21623,0.12817 -0.42384,0.26159 -0.6226,0.39817c0.01336,-0.08831 0.05729,-0.18353 0.15251,-0.27875z" fill="#000000"/><path d="M237.7125,206.10054c0,1.75 -1.75,1.75 -1.75,1.75l-3.04315,-0.04682c-4.49624,-2.24812 -10.1159,0.13544 -14.96381,-1.29691c-2.20657,-0.65195 -3.94798,-2.48892 -6.16485,-3.10489c-1.01692,-0.28256 -2.21949,0.26629 -3.15904,-0.21454c-0.69745,-0.35693 -0.65152,-1.46324 -1.20429,-2.01848c-1.28814,-1.2939 -3.4996,-1.28276 -4.89191,-2.46384c-3.7084,-3.1458 -4.48217,-8.07396 -6.79746,-11.93278c-0.47317,-0.78861 -1.56226,-1.15133 -1.88888,-2.01105c-1.2365,-3.25466 -0.01976,-9.21154 0.76027,-12.32821c0.00749,-2.13843 0.17096,-5.36709 0.94234,-7.33618c0.38593,-0.98516 1.36776,-1.6587 1.76072,-2.64109c0.21797,-0.54493 -0.21923,-1.2163 0,-1.76072c0.62615,-1.55493 2.23979,-2.66252 2.61281,-4.29675c0.13842,-0.6064 -0.2092,-1.2909 0.02828,-1.86578c0.79291,-1.91948 2.53665,-3.28908 3.79423,-4.94184c1.26835,-1.66691 2.26809,-3.67045 4.00353,-4.84329c0.69536,-0.46993 1.74343,-0.20977 2.41451,-0.71376c0.52469,-0.39405 0.35144,-1.37236 0.88036,-1.76072c2.5712,-1.88793 6.04476,-2.18868 9.06985,-2.18868c0,0 1.75,0 1.75,1.75c0,1.75 -1.75,1.75 -1.75,1.75c-2.07945,0 -5.03289,-0.0111 -6.77665,1.33276c-0.51975,0.40055 -0.35519,1.36731 -0.88036,1.76072c-0.81442,0.6101 -2.00814,0.50223 -2.86766,1.04695c-1.40555,0.89078 -2.03109,2.6365 -3.03934,3.96032c-1.12443,1.47636 -2.55062,2.03396 -3.24866,3.86177c-0.19692,0.51565 0.17096,1.12246 0.02828,1.65566c-0.45135,1.68667 -2.02535,2.88395 -2.66935,4.50686c-0.21648,0.54552 0.21797,1.21579 0,1.76072c-0.39296,0.98238 -1.36005,1.66182 -1.76072,2.64109c-0.71877,1.75671 -0.8256,4.78955 -0.81839,6.74958c-0.7625,3.05336 -0.75981,5.4972 -0.86725,8.59037c-0.02285,0.65804 -0.39367,1.36607 -0.13321,1.9708c0.29326,0.68089 1.25114,0.87467 1.63257,1.51039c2.09329,3.48881 2.72622,8.28014 6.07923,11.0995c1.0914,0.9177 4.02197,1.61209 5.12078,2.67541c0.3839,0.3715 0.07498,1.27147 0.55643,1.50297c0.64105,0.30824 1.43541,-0.39625 2.12312,-0.21455c2.28733,0.60435 4.09249,2.47162 6.35714,3.1561c4.80338,1.4518 10.21753,-1.03128 14.77153,1.24571l2.23902,-0.04682c0,0 1.75,0 1.75,1.75z" fill="#ff0000"/><path d="M271.27467,199.74254c-1.56525,-0.78262 -0.78262,-2.34787 -0.78262,-2.34787l0.74242,-1.38017c-0.11802,-5.69881 -0.08574,-11.08922 0.85614,-16.6051c0.54755,-3.20663 -0.02259,-7.02105 -0.02259,-10.30546c0,-7.33276 0,-14.66553 0,-21.99829c-6.45955,0 -12.91911,0 -19.37866,0c0,0 -1.75,0 -1.75,-1.75c0,-1.75 1.75,-1.75 1.75,-1.75c7.6298,0 15.25959,0 22.88938,0c3.1519,0 6.98326,-0.54674 10.08603,0.04681c0.6445,0.12329 1.11834,0.74649 1.76072,0.88036c1.3053,0.27203 2.66641,-0.04682 3.99974,-0.04682h1.76072c0,0 1.75,0 1.75,1.75c0,1.75 -1.75,1.75 -1.75,1.75h-1.76072c-0.8426,0 -4.51455,0.00902 -4.80388,-0.04682c-0.64429,-0.12435 -1.11805,-0.74785 -1.76072,-0.88036c-2.77082,-0.57131 -6.45333,0.04682 -9.2819,0.04682c-0.00358,0 -0.00714,0 -0.01072,0c0,7.33276 0,14.66553 0,21.99829c0,3.49517 0.5318,7.43767 -0.0226,10.86609c-0.14814,0.91608 -0.69128,1.73257 -0.88036,2.64109c-0.8909,4.28073 0.04285,9.81682 -0.02422,14.20752l-1.0183,2.14128c0,0 -0.78262,1.56525 -2.34787,0.78262z" fill="#000000"/><path d="M332.80798,146.91253c1.37989,-0.02728 2.69876,0.05901 3.55532,0.47592c0.73365,0.35709 0.69108,1.51851 1.27227,2.09121c2.26818,2.23507 5.6097,3.81145 7.85709,6.09165c1.57842,1.60147 1.98315,4.07694 3.38532,5.8348c0.5639,0.70694 1.79063,0.79059 2.18913,1.60235c0.48005,0.97788 0.02943,2.18591 0.19882,3.26202c1.06883,6.78988 0.89347,13.52424 0.89347,20.44067c-0.05375,4.66029 -1.13715,7.10674 -3.85177,10.72866c-0.42735,0.57019 -0.48107,1.39496 -0.98809,1.89563c-1.68021,1.65914 -4.12965,2.30145 -6.09431,3.61141c-2.71113,1.80768 -4.70534,3.42926 -8.14272,4.00072c-1.4474,0.24063 -2.96532,-0.29896 -4.40181,0c-2.54336,0.52933 -4.90201,1.42028 -7.60352,0.88037c-5.64774,-1.12874 -11.74636,-4.99745 -16.44454,-8.13706c-1.64972,-0.87479 -2.82416,-2.47207 -3.99642,-3.92555c-2.2996,-2.85127 -4.98982,-5.82255 -5.65622,-9.63277c-0.73004,-4.17411 -0.0226,-9.26021 -0.0226,-13.48573c0,-2.40159 -0.54362,-5.93942 0.04681,-8.32531c0.47751,-1.92957 1.99036,-3.70564 2.72748,-5.54979c1.15851,-2.89843 0.6183,-3.35679 3.09972,-5.92441c0.84001,-0.86919 2.02122,-1.48542 2.5618,-2.56658c1.49229,-0.80292 2.51961,-2.38165 4.08918,-3.02043c0.89844,-0.36565 1.95633,0.09765 2.90871,-0.08639c2.45603,-0.47463 4.55365,-3.01005 7.04289,-3.52145c3.77977,-0.77653 10.10915,-0.59887 13.50975,1.0183l1.33517,1.20817c0,0 0.42862,0.42862 0.52909,1.0336zM327.83334,147.22343c-2.8623,-0.75056 -7.20867,-0.62329 -9.59522,-0.16459c-2.45553,0.47196 -4.55497,3.0079 -7.04289,3.52145c-0.77533,0.16004 -1.63606,-0.37451 -2.37345,-0.08639c-1.15503,0.4513 -1.82346,1.75152 -2.95371,2.26172c-0.573,1.146 -1.79514,1.82925 -2.72037,2.71559c-1.4768,1.41473 -1.46492,2.84743 -2.18244,4.63993c-0.65537,1.63721 -2.12338,3.31636 -2.55469,5.01453c-0.51697,2.03544 0.04681,5.49049 0.04681,7.52118c0,4.08445 -0.65205,8.88057 -0.0226,12.92509c0.48862,3.1396 3.06047,5.64324 4.90811,7.97445c0.90246,1.13866 1.72565,2.51201 3.04647,3.11733c4.34872,2.89268 10.02663,6.66405 15.24844,7.70943c2.34537,0.46953 4.27697,-0.45506 6.48225,-0.88036c0.90627,-0.17478 3.58337,0.13682 4.40181,0c2.96205,-0.49519 4.4008,-1.8839 6.72494,-3.43311c1.017,-0.6779 4.38515,-1.95864 5.44885,-3.04053c2.68962,-2.73561 4.0185,-6.52086 3.96374,-10.30798c0,-5.36309 0.7543,-11.3075 -0.01713,-16.60765c-0.16851,-1.15777 -0.71067,-2.24375 -0.85012,-3.40537c-0.08065,-0.67181 0.50859,-1.41858 0.19882,-2.02014c-0.29958,-0.58176 -1.31374,-0.42989 -1.72326,-0.94026c-1.39271,-1.73571 -1.64134,-4.1113 -3.26662,-5.70836c-2.32737,-2.28696 -5.70043,-3.90723 -7.9894,-6.2334c-0.35334,-0.35909 -0.04314,-1.19466 -0.48845,-1.43024c-0.51291,-0.27134 -1.14183,0.22666 -1.72106,0.26137c-1.46464,0.08775 -2.93453,0 -4.4018,0c0,0 -1.75,0 -1.75,-1.75c0,-1.0843 0.67183,-1.49677 1.18296,-1.65367z" fill="#efff00"/><path d="M323.10749,170.00575c0,1.75 -1.75,1.75 -1.75,1.75h-1.76072c-2.90302,0 -5.07148,0.20846 -7.7098,-1.01086c-0.07367,0.43033 -0.15562,0.86395 -0.24677,1.3019c-0.21978,1.05602 -0.50982,3.87149 0.3904,4.64477c3.07425,2.64074 5.42718,2.52004 8.08945,0c0.44185,-0.41824 1.17514,-0.62059 1.38137,-1.19298c0.29841,-0.82825 -0.32696,-1.82369 0,-2.64109c0.30826,-0.77065 1.42894,-0.99991 1.76072,-1.76072c0.26327,-0.60372 -0.08881,-1.31426 -0.13321,-1.97138c0.02847,-1.36159 -0.53879,-2.67012 -0.83354,-3.99973c-0.09098,-0.41042 0.45953,-0.90115 0.21454,-1.24276c-0.31297,-0.43641 -1.12725,-0.18577 -1.50952,-0.56295c-0.33519,-0.33073 -1.24192,-2.85382 -2.07334,-3.14209c-1.58139,-0.5483 -4.62458,0.13321 -6.37319,0.13321h-0.0111c-0.00284,2.45163 -0.02685,4.74702 -0.22672,7.05891c0.55227,-0.04391 1.02044,0.19017 1.02044,0.19017c2.03381,1.09403 3.9642,0.69561 6.26026,0.69561h1.76072c0,0 1.75,0 1.75,1.75zM309.05121,160.09895c-0.44193,-0.21649 -0.88841,-0.65395 -0.88841,-1.53789c0,-1.75 1.75,-1.75 1.75,-1.75h2.64108c2.07295,0 5.87509,-0.65194 7.71258,0.13321c1.54825,0.66156 2.02579,2.70281 3.20882,3.9008c0.54841,0.55534 1.59099,0.54052 2.01193,1.19777c0.41145,0.64246 0.01495,1.54234 0.21454,2.27868c0.42665,1.57405 0.90209,3.17322 0.92717,4.80387c-0.0444,1.1036 0.25319,2.27609 -0.13321,3.31078c-0.29037,0.77756 -1.45246,0.99007 -1.76072,1.76072c-0.32696,0.8174 0.3482,1.8325 0,2.64108c-0.41695,0.96822 -1.40869,1.56928 -2.14008,2.32846c-3.70812,3.84908 -6.37797,3.54328 -10.82367,1.20817c-0.74471,-0.39115 -1.64063,-0.59411 -2.21553,-1.20817c-2.8181,-3.01007 -1.05805,-7.00873 -0.48997,-10.32136c0.44705,-2.6069 0.04836,-6.01098 -0.01454,-8.74612z" fill="#efff00"/><path d="M340.72543,173.51647l-2.16279,-0.04681c-0.44567,-0.21194 -0.89083,-0.42497 -1.33533,-0.63936c-0.00591,0.22536 -0.0166,0.45054 -0.03405,0.67545c-0.02134,0.27507 -0.54595,0.58679 -0.33033,0.75892c0.28119,0.22447 3.41911,0.20601 3.46042,0.20042c0.98618,-0.13349 1.31909,-0.60696 1.34074,-1.2008c-0.45766,0.25218 -0.93867,0.25218 -0.93867,0.25218zM339.36677,170.06329l1.35865,-0.04681c0,0 0.00828,0 0.0237,0.00057c0.00742,-0.71338 0.23658,-1.78423 -0.38078,-2.29529c-0.43568,-0.36067 -1.09746,-0.35426 -1.54652,-0.69813c-0.50961,-0.39022 -1.02904,-0.95043 -1.60221,-1.24382c-0.1526,1.0121 -0.08956,2.03788 -0.04969,3.13656c0.73636,0.37446 1.46936,0.75559 2.19685,1.14692zM338.01434,162.38377c2.66138,0.74934 5.36324,2.83189 6.17499,5.45919c0.17325,0.56075 -0.14234,1.19134 0,1.76072c0.63337,2.53346 1.97265,4.48327 -0.46575,6.92167c-2.20632,2.20632 -7.58516,2.04426 -9.7,-0.21419c-0.40209,-0.42939 -0.35655,-4.68879 -0.33621,-5.95508c-0.03696,-0.1833 -0.0408,-0.38735 0.00536,-0.61214c-0.00717,-1.84231 -0.08029,-3.39486 0.21816,-4.97975c-0.13259,-0.23444 -0.21763,-0.53518 -0.21763,-0.92096c0,-0.98338 0.55259,-1.41417 1.03674,-1.60288c0.00937,-0.02 0.01883,-0.04004 0.02837,-0.0601c0,0 0.78262,-1.56525 2.34787,-0.78262c0.53656,0.26828 0.79722,0.62852 0.90809,0.98615z" fill="#efff00"/><path d="M332.79146,190.25405c0,1.75 -1.75,1.75 -1.75,1.75h-2.64108c-3.13671,-0.04826 -6.75203,-0.59764 -9.58623,-1.94547c0,0 -1.56525,-0.78262 -0.78262,-2.34787c0.78262,-1.56525 2.34787,-0.78262 2.34787,-0.78262c1.20042,0.64573 2.68464,0.4751 4.02124,0.74242c1.33544,0.26709 2.63815,0.86201 3.99974,0.83354h2.64108c0,0 1.75,0 1.75,1.75z" fill="#efff00"/><path d="M315.43258,119.76846c0.47346,-0.81291 1.5231,-0.81291 1.5231,-0.81291c4.14276,0 7.73646,0.07286 11.72501,0.90296c1.47624,0.30724 3.043,-0.26154 4.52355,0.02422c0.64429,0.12435 1.11399,0.76941 1.76072,0.88036c1.06956,0.18349 5.2225,-0.32329 6.26758,0.02827c5.4841,1.84486 8.09853,8.25289 6.46154,13.58673c-0.37059,1.20749 -1.36006,2.13633 -1.90271,3.2769c-0.56974,1.19751 -0.55842,2.71003 -1.42378,3.71491c-0.78898,0.91617 -2.28861,0.90066 -3.21751,1.67462c-0.57003,0.47495 -0.7392,1.28671 -1.10879,1.93006c-5.13496,1.45715 -9.85384,1.25071 -15.16237,1.25071c-0.52232,0 -5.37152,0.01354 -5.68423,-0.04681c-2.24113,-0.43255 -4.33637,-1.29696 -6.74318,-1.69738c-1.53594,-0.25553 -3.04512,-0.65629 -4.57976,-0.91949c-0.89377,-0.15328 -4.27544,0.30942 -5.04151,-0.23876c-2.55569,-1.82879 -1.29564,-3.26775 -1.68773,-5.61012c-0.5217,-3.11659 -1.93372,-6.70646 -0.64604,-9.97529c0.27278,-0.69247 1.48004,-0.53348 1.92622,-1.12918c0.58054,-0.77511 0.64701,-1.82556 0.97051,-2.73834c2.73884,-1.07521 5.91281,-3.28295 8.75862,-3.98719c1.06472,-0.26348 2.17333,-0.18799 3.28077,-0.11426zM319.38533,122.47611c-0.45965,0.85981 -1.54928,0.85981 -1.54928,0.85981h-0.88036c-1.33334,0 -2.70743,-0.37504 -3.99974,-0.04681c-2.45629,0.62385 -4.52801,2.43712 -7.08788,3.05569c-0.2634,0.84794 -0.26148,1.8305 -0.79021,2.54383c-0.34378,0.4638 -1.37608,0.14033 -1.59523,0.67443c-0.79482,1.93708 0.80946,5.7493 1.11468,7.58904c0.17427,1.05041 -0.90157,2.76456 0.07299,3.19348c1.15009,0.50618 2.52178,-0.44012 3.76209,-0.23876c1.50238,0.2439 2.97447,0.65353 4.47573,0.90421c2.49854,0.41719 4.74708,1.27268 7.0907,1.76109c1.59256,0.33189 3.25332,-0.04681 4.8801,-0.04681c4.35232,0 8.72772,0.31945 13.00917,-0.51001c0.27199,-0.55805 0.33578,-1.28069 0.81597,-1.67416c0.86977,-0.71268 2.28147,-0.64144 3.03197,-1.4788c0.67313,-0.75104 0.46473,-1.97671 0.88628,-2.89294c0.44746,-0.97254 1.36117,-1.70964 1.69877,-2.72555c1.13375,-3.41174 -0.40767,-8.10087 -4.10279,-9.30264c-1.92018,-0.62451 -4.06482,0.35453 -6.05747,0.02827c-0.64756,-0.10603 -1.11834,-0.74649 -1.76072,-0.88036c-1.3967,-0.29107 -2.87916,0.29438 -4.28005,0.02422c-3.01692,-0.58182 -5.7544,-0.7798 -8.73473,-0.83721z" fill="#efff00"/></g></g></svg>