<svg version="1.1" xmlns="http://www.w3.org/2000/svg" xmlns:xlink="http://www.w3.org/1999/xlink" width="220.2946" height="143.09946" viewBox="0,0,220.2946,143.09946"><g transform="translate(-157.93363,-102.59123)"><g data-paper-data="{&quot;isPaintingLayer&quot;:true}" stroke-linecap="butt" stroke-linejoin="miter" stroke-miterlimit="10" stroke-dasharray="" stroke-dashoffset="0" style="mix-blend-mode: normal"><g><path d="M278.4071,225.623c2.677,-6.5778 6.802,-4.6181 6.802,-4.6181c4.3025,1.5599 7.0625,4.6181 7.0625,4.6181h-13.8645" fill="#e3a066" fill-rule="nonzero" stroke="none" stroke-width="1"/><path d="M284.9591,220.9118c4.3025,1.5595 7.3125,4.7112 7.3125,4.7112h-14.125" fill="none" fill-rule="evenodd" stroke="#8d6a4a" stroke-width="0.5"/><path d="M273.9591,225.623c3.0835,-3.1421 8.1245,-3.7278 8.1245,-3.7278c4.3025,1.56 5.74,3.7278 5.74,3.7278h-13.8645" fill="#e3a066" fill-rule="nonzero" stroke="none" stroke-width="1"/><path d="M282.0836,221.8952c4.3025,1.56 5.74,3.7278 5.74,3.7278h-14.125" fill="none" fill-rule="evenodd" stroke="#8d6a4a" stroke-width="0.5"/><path d="M283.2611,137.6448c3.4375,3.8017 -0.5625,8.4208 -0.5625,8.4208c0,0 -1.405,2.7962 0.3855,3.5995c0.0245,13.3782 -0.625,41.1381 -0.625,41.6046c0,0.6702 1.5,27.9856 1.6455,28.5095c0.2415,0.8682 1.1045,1.655 1.1045,1.655c-1.354,-0.1679 -2.4375,-1.4876 -2.4375,-1.4876c0.3335,1.1729 1.521,1.9481 1.521,1.9481c-1.021,-0.1232 -2.042,-0.0453 -2.5005,-0.0422c-0.4165,0.0015 -5.7495,1.3402 -7.833,3.7705h-12.5835c-0.25,0 -10.833,-11.1436 -11.1665,-24.2986c-0.3335,-13.155 3.263,-25.8284 6,-31.7058c3.1775,-6.8251 8.4895,-19.775 8.8645,-21.3149c0.375,-1.5393 0.014,-7.7999 2.4205,-10.9108c1.672,-2.1617 4.944,-3.2044 7.111,-3.2044c2.1665,0 6.747,1.3448 8.656,3.4563" fill="#3e5766" fill-rule="nonzero" stroke="none" stroke-width="1"/><path d="M283.6654,150.3918c0,0 2.0955,2.843 3.6895,6.2314c3.5,7.7501 5.75,19.2506 4.504,33.0139c-1.149,12.6945 -2.233,20.8413 -5.9425,27.3024c-0.5085,0.8858 1.4595,2.0225 1.4595,2.0225c-0.8335,0 -1.9395,0.1021 -1.9395,0.1021c0.083,1.0476 1.8145,1.3639 1.8145,1.3639c-2.396,1.1733 -3.1045,-0.4907 -3.1045,-0.4907c0.396,0.9743 0.9545,1.479 0.9545,1.479c-0.667,0.0418 -2.3295,-1.4694 -2.3295,-1.4694c0,1.1311 1.521,1.948 1.521,1.948c-9.9065,0.0644 -14.5835,-12.0238 -13.8335,-15.459c0.75,-3.4351 7.667,-36.6999 8.112,-44.073c0.4445,-7.3736 5.0945,-11.9711 5.0945,-11.9711" fill="#fbf8ea" fill-rule="nonzero" stroke="none" stroke-width="1"/><path d="M278.7403,160.2739c0.3336,-9.3066 4.3435,-10.6087 4.3435,-10.6087l1.661,2.2432c-3.1544,0.4087 -6.0084,8.4786 -6.0045,8.3655" fill="#f0c579" fill-rule="nonzero" stroke="none" stroke-width="1"/><path d="M282.2508,147.2804c0,0 -0.45,0.9859 0.125,1.5922c0.7155,0.7541 11.6175,11.9529 9.5836,39.4645c-1.6671,22.539 -5.4056,27.1153 -5.8266,28.0424c-0.2804,0.6168 -0.7669,1.5765 1.243,2.582c0,0 -1.2404,0.1548 -1.9395,0.1026c0,0 0.4711,0.9446 1.8145,1.3639c0,0 -0.6664,0.9074 -2.9164,0.2373" fill="none" fill-rule="evenodd" stroke="#d1c1b5" stroke-width="0.5"/><path d="M284.1048,219.7792c0.1875,0.8813 1.104,1.655 1.104,1.655c-1.354,-0.1679 -2.4375,-1.4876 -2.4375,-1.4876c0.3335,1.1729 1.521,1.9481 1.521,1.9481c-1.021,-0.1232 -2.042,-0.0453 -2.5,-0.0422c-0.4165,0.0015 -5.75,1.3402 -7.8334,3.7705h-12.5831c-0.25,0 -10.8335,-11.1436 -11.167,-24.2986c-0.3329,-13.155 3.2636,-25.8284 6,-31.7058c3.1781,-6.8251 8.4895,-19.775 8.8645,-21.3149c0.375,-1.5393 0.0145,-7.7999 2.4205,-10.9108c1.6726,-2.1617 4.9445,-3.2044 7.111,-3.2044c2.1666,0 6.823,1.278 8.6566,3.4563" fill="none" fill-rule="evenodd" stroke="#2e374a" stroke-width="0.5"/></g><g><path d="M279.6361,145.6257c-0.098,0.0141 4.2355,-2.4267 4.5625,-4.3989c0.25,-1.5082 -1.375,-3.1738 -0.9375,-3.582c0.2915,-0.2725 0.943,1.1774 2.219,1.8224c1.3655,0.6908 3.281,1.6967 6.437,2.1366c3.1565,0.4399 5.8755,1.2885 7.0315,2.5137c1.1565,1.2256 1.75,2.5765 1.75,2.5765c0,0 -1.4685,-2.294 -10.219,-1.4137c-6.7185,0.3454 -7.229,1.3614 -8.229,2.0004c-1,0.6384 0.198,-2.0632 -2.6145,-1.655" fill="#e3a066" fill-rule="nonzero" stroke="none" stroke-width="1"/><path d="M281.8861,145.4057c0,0 0.2795,-0.0975 0.776,-0.2272c0.2495,-0.0618 0.5525,-0.1367 0.9,-0.2232c0.1745,-0.0407 0.3605,-0.084 0.556,-0.1297c0.1965,-0.0427 0.4075,-0.0548 0.6245,-0.09c1.7425,-0.2373 4.078,-0.4866 6.427,-0.5254c1.1745,-0.0206 2.351,0.0096 3.451,0.1086c0.5505,0.0493 1.0805,0.1212 1.5815,0.2011c0.5005,0.089 0.971,0.1921 1.401,0.3077c0.2115,0.0704 0.423,0.1106 0.6115,0.19c0.185,0.0855 0.361,0.1669 0.526,0.2428c0.3215,0.174 0.598,0.3243 0.809,0.4792c0.2205,0.1372 0.368,0.281 0.4735,0.3695c0.104,0.0905 0.16,0.1382 0.16,0.1382c0,0 -0.0635,-0.0372 -0.1825,-0.1071c-0.1185,-0.0699 -0.2875,-0.1764 -0.521,-0.2785c-0.2245,-0.1176 -0.516,-0.2217 -0.8455,-0.3393c-0.338,-0.1001 -0.7185,-0.1996 -1.13,-0.3313c-0.417,-0.1121 -0.875,-0.2127 -1.3645,-0.2992c-0.491,-0.0784 -1.011,-0.1488 -1.5525,-0.1975c-1.0835,-0.0976 -2.247,-0.1272 -3.4105,-0.1071c-2.3285,0.0382 -4.6515,0.286 -6.383,0.5223c-0.4305,0.0764 -0.831,0.1071 -1.187,0.1297c-0.355,0.0312 -0.6645,0.0589 -0.9195,0.0815c-0.255,0.0246 -0.4555,0.0442 -0.5925,0.0578c-0.1345,0.0131 -0.2085,0.0271 -0.2085,0.0271" fill="#8d6a4a" fill-rule="nonzero" stroke="none" stroke-width="1"/><path d="M279.6361,145.6257c-0.098,0.0141 4.2355,-2.4267 4.5625,-4.3989c0.25,-1.5082 -1.375,-3.1738 -0.9375,-3.582c0.2915,-0.2725 0.943,1.1774 2.219,1.8224c1.3655,0.6908 3.281,1.6967 6.437,2.1366c3.1565,0.4399 5.8755,1.2885 7.0315,2.5137c1.1565,1.2256 1.75,2.5765 1.75,2.5765c0,0 -1.4685,-2.294 -10.219,-1.4137c-6.7185,0.3454 -7.229,1.3614 -8.229,2.0004c-1,0.6384 0.198,-2.0632 -2.6145,-1.655z" fill="none" fill-rule="evenodd" stroke="#8d6a4a" stroke-width="0.5"/></g><g><path d="M276.1986,139.8958c0.078,-0.6596 1.0315,-1.2568 2.5,-1.194c1.953,0.1569 2.257,1.1467 2.25,1.5394c-0.0085,0.4756 -0.1385,1.1628 -2.373,1.1628c-1.9085,0 -2.447,-0.9155 -2.377,-1.5082" fill="#e2e3e4" fill-rule="nonzero" stroke="none" stroke-width="1"/><path d="M278.9642,141.3839c0,0 -0.7654,-0.4711 -0.6095,-1.3669c0.1561,-0.8929 1.073,-1.09 1.4186,-1.0583c0.3454,0.0312 0.623,0.3273 0.623,0.3273c0,0 0.74,0.558 0.5525,1.1708c-0.1875,0.6129 -1.1145,0.8859 -1.1145,0.8859c0,0 -0.7466,0.104 -0.8701,0.0412" fill="#2e374a" fill-rule="nonzero" stroke="none" stroke-width="1"/><path d="M276.1986,139.9385c0.078,-0.6596 1.0315,-1.2568 2.5,-1.194c1.953,0.1569 2.257,1.1468 2.25,1.5394c-0.0085,0.4756 -0.1385,1.1628 -2.373,1.1628c-1.9085,0 -2.447,-0.9155 -2.377,-1.5082z" fill="none" fill-rule="evenodd" stroke="#2e374a" stroke-width="0.5"/></g><g><path d="M276.1928,167.0546c1.4006,5.7815 1.3495,17.5957 -0.817,27.9017c-2.1664,10.306 -12.0835,21.1147 -12.8335,20.612c-0.75,-0.5027 -0.5,-1.5916 -0.3335,-4.8594c0.167,-3.2678 -1.1665,-7.2062 -2.1664,-9.0492c-1,-1.843 -0.5836,-6.0328 -0.5836,-6.0328c0,0 3.7356,-22.1061 4.507,-25.0054c0.993,-3.7343 3.7325,-5.0751 3.7325,-5.0751" fill="#3e5766" fill-rule="nonzero" stroke="none" stroke-width="1"/><path d="M276.1928,167.0546c1.4006,5.7815 1.3495,17.5957 -0.817,27.9017c-2.1664,10.306 -12.0835,21.1147 -12.8335,20.612c-0.75,-0.5027 -0.5,-1.5916 -0.3335,-4.8594c0.167,-3.2678 -1.1665,-7.2062 -2.1664,-9.0492c-1,-1.843 -0.5836,-6.0328 -0.5836,-6.0328c0,0 3.7356,-22.1061 4.507,-25.0054c0.993,-3.7343 3.7325,-5.0751 3.7325,-5.0751" fill="none" fill-rule="evenodd" stroke="#2e374a" stroke-width="0.5"/></g><path d="M173.77177,245.69069c-1.10457,0 -2,-0.89543 -2,-2v-127.38138c0,-1.10457 0.89543,-2 2,-2h202.45646c1.10457,0 2,0.89543 2,2v127.38138c0,1.10457 -0.89543,2 -2,2z" fill="#ffffff" fill-rule="nonzero" stroke="none" stroke-width="0"/><path d="M184.03435,127.35654c-0.49593,0.06365 -0.55958,-0.43229 -0.55958,-0.43229l-0.02034,-0.15849c-0.42342,-3.56874 -5.84428,-4.24213 -7.82901,-6.72769c-0.80521,-1.0084 -0.58123,-2.77054 -1.31173,-3.80951c-0.94382,-1.34236 -1.70985,-1.60755 -2.28893,-3.34652c-0.03568,-2.55908 -1.41166,-2.50062 -3.30427,-3.84196c-3.25802,-2.30906 -6.63103,-4.20575 -10.43836,-5.47486c0,0 -0.47434,-0.15811 -0.31623,-0.63246c0.15811,-0.47434 0.63246,-0.31623 0.63246,-0.31623c3.898,1.29933 7.36723,3.23851 10.70091,5.60806c2.03327,1.44524 3.69632,1.6153 3.71132,4.48973c0.56234,1.61999 1.2097,1.64277 2.12113,2.93906c0.71746,1.02042 0.51376,2.80719 1.27514,3.7607c2.21382,2.77245 7.4821,3.13826 8.03944,7.22438l0.02034,0.15849c0,0 0.06365,0.49593 -0.43229,0.55958z" fill="#000000" fill-rule="nonzero" stroke="none" stroke-width="0.5"/><path d="M279.05937,131.76232c-0.49991,0.00971 -0.50961,-0.4902 -0.50961,-0.4902l-0.00456,-0.23468c-0.05614,-2.91271 -0.7912,-4.6629 -2.72775,-6.84369c-1.87069,-2.23135 -0.78868,-8.15892 -0.79127,-11.07953c-0.00049,-0.55471 0.37494,-3.11813 -0.26698,-3.42643c-0.49674,-0.23857 -2.1765,0.0656 -2.75242,0.0656c0,0 -0.5,0 -0.5,-0.5c0,-0.5 0.5,-0.5 0.5,-0.5c0.69677,0 2.67292,-0.28852 3.24758,0.0656c1.24322,0.76609 0.77075,3.1042 0.77181,4.29433c0.00208,2.33348 0.00203,4.66696 0.00204,7.00044c0,1.24995 -0.34636,2.49559 0.53752,3.41661c2.07881,2.34865 2.91788,4.34911 2.97928,7.48765l0.00456,0.23468c0,0 0.00971,0.49991 -0.4902,0.50961z" fill="#000000" fill-rule="nonzero" stroke="none" stroke-width="0.5"/><path d="M349.00464,135.82371c-0.15949,-0.47388 0.31439,-0.63337 0.31439,-0.63337l0.79284,-0.26684c3.25479,-1.09545 4.44986,-3.0769 7.09693,-4.99899c0.49588,-0.36007 1.32434,-0.28953 1.65155,-0.80769c0.67744,-1.07274 0.49077,-1.56027 1.88041,-2.32612c1.10633,-0.56499 2.06724,-2.51025 2.33457,-3.76141c0.82974,-3.88344 -0.01104,-8.9083 -0.01104,-12.89553c0,0 0,-0.5 0.5,-0.5c0.5,0 0.5,0.5 0.5,0.5c0,4.6395 1.89586,14.8237 -2.84464,17.53481c-0.74242,0.40026 -1.04009,1.32864 -1.53373,2.01254c-0.21851,0.30273 -1.53648,0.79619 -1.88956,1.05257c-2.71723,1.97304 -4.00688,4.00717 -7.36551,5.13757l-0.79284,0.26684c0,0 -0.47388,0.15949 -0.63337,-0.31439z" fill="#000000" fill-rule="nonzero" stroke="none" stroke-width="0.5"/><path d="M359.54285,167.35764c-0.00043,-0.5 0.49957,-0.50043 0.49957,-0.50043l0.53634,-0.00047c0.56307,-0.00049 3.13139,0.37546 3.46787,-0.23698c0.60029,-1.09257 -0.00432,-3.96094 1.13062,-4.91624c1.29843,-1.09292 6.12897,0.16664 7.41425,0.80467c0,0 0.44721,0.22361 0.22361,0.67082c-0.22361,0.44721 -0.67082,0.22361 -0.67082,0.22361c-1.50376,-0.75793 -2.98361,-0.78266 -4.64322,-0.81416c-0.55423,-0.01052 -1.27057,-0.53691 -1.65713,-0.1396c-0.88294,0.9075 -0.26264,3.7092 -0.95591,4.71131c-0.79947,1.15563 -3.13771,0.69556 -4.30842,0.69658l-0.53634,0.00047c0,0 -0.5,0.00043 -0.50043,-0.49957z" fill="#000000" fill-rule="nonzero" stroke="none" stroke-width="0.5"/><path d="M353.38434,191.06368c0.06326,-0.49598 0.55924,-0.43272 0.55924,-0.43272l0.33222,0.04237c1.05199,0.13771 1.88174,0.65715 2.88827,0.84206c3.46987,0.63745 7.02177,-0.59713 10.4102,-0.852c-0.33205,-2.12156 -1.03233,-8.81227 1.45423,-9.69557c2.72925,-0.96951 5.36816,0.85551 7.74119,0.85551c0,0 0.5,0 0.5,0.5c0,0.5 -0.5,0.5 -0.5,0.5c-0.25752,0 -2.08135,0.01476 -2.22675,-0.05437c-0.30372,-0.1444 -0.30618,-0.64488 -0.59746,-0.81296c-0.65842,-0.37993 -4.72296,-0.27356 -5.1722,0.37186c-1.26031,1.81069 -0.23488,6.77496 -0.41532,8.95669c-5.02773,1.62645 -9.21267,0.9991 -14.20869,0.38075l-0.33222,-0.04237c0,0 -0.49598,-0.06326 -0.43272,-0.55924z" fill="#000000" fill-rule="nonzero" stroke="none" stroke-width="0.5"/><path d="M217.04405,173.51973c0,0.5 -0.5,0.5 -0.5,0.5l-0.28978,0c-5.58953,-0.00005 -11.88726,0.9012 -17.05564,-1.34343c-0.94004,-1.04852 -1.31534,-3.64604 -2.33812,-4.32788c-1.17073,-0.78047 -3.29192,-0.91937 -4.64573,-1.24395c-3.6056,-0.86445 -7.14964,-1.45536 -10.71365,-2.53828c-3.81207,-1.15829 -7.49227,-2.71713 -11.31626,-3.92169c-1.80208,-0.56765 -3.68401,-1.60483 -5.58211,-1.5909c0,0 -0.5,0 -0.5,-0.5c0,-0.5 0.5,-0.5 0.5,-0.5c2.03336,0.01266 3.9547,1.02983 5.88256,1.6371c3.82041,1.20343 7.49862,2.76165 11.30653,3.91868c3.54581,1.07739 7.06805,1.66343 10.65594,2.52261c1.44066,0.34499 3.7776,0.50889 4.99014,1.39998c1.26377,0.92873 1.28586,3.11632 2.34353,4.33174c5.0017,2.02384 11.09678,1.15596 16.4728,1.15601l0.28978,0c0,0 0.5,0 0.5,0.5z" fill="#000000" fill-rule="nonzero" stroke="none" stroke-width="0.5"/></g></g></svg>