<svg version="1.1" xmlns="http://www.w3.org/2000/svg" xmlns:xlink="http://www.w3.org/1999/xlink" width="733.85247" height="525.90876" viewBox="0,0,733.85247,525.90876"><defs><linearGradient x1="188.96201" y1="-30.73629" x2="252.22988" y2="398.97844" gradientUnits="userSpaceOnUse" id="color-1"><stop offset="0" stop-color="#001aff"/><stop offset="1" stop-color="#0081ff"/></linearGradient><radialGradient cx="66.3926" cy="417.87419" r="23.88919" gradientUnits="userSpaceOnUse" id="color-2"><stop offset="0" stop-color="#d6dc81"/><stop offset="1" stop-color="#efff00"/></radialGradient><radialGradient cx="66.19023" cy="419.54835" r="24.33805" gradientUnits="userSpaceOnUse" id="color-3"><stop offset="0" stop-color="#d6dc81"/><stop offset="1" stop-color="#efff00"/></radialGradient><radialGradient cx="50.8727" cy="417.74342" r="23.8892" gradientUnits="userSpaceOnUse" id="color-4"><stop offset="0" stop-color="#d6dc81"/><stop offset="1" stop-color="#efff00"/></radialGradient><radialGradient cx="50.5514" cy="418.62594" r="24.33805" gradientUnits="userSpaceOnUse" id="color-5"><stop offset="0" stop-color="#d6dc81"/><stop offset="1" stop-color="#efff00"/></radialGradient><radialGradient cx="50.40805" cy="250.66794" r="158.80049" gradientUnits="userSpaceOnUse" id="color-6"><stop offset="0" stop-color="#d6dc81"/><stop offset="1" stop-color="#efff00"/></radialGradient><radialGradient cx="81.6807" cy="281.54002" r="123.62535" gradientUnits="userSpaceOnUse" id="color-7"><stop offset="0" stop-color="#d6dc81"/><stop offset="1" stop-color="#efff00"/></radialGradient><radialGradient cx="110.44466" cy="164.41069" r="15.97803" gradientUnits="userSpaceOnUse" id="color-8"><stop offset="0" stop-color="#d6dc81"/><stop offset="1" stop-color="#efff00"/></radialGradient><radialGradient cx="96.81977" cy="272.57291" r="129.63367" gradientUnits="userSpaceOnUse" id="color-9"><stop offset="0" stop-color="#d6dc81"/><stop offset="1" stop-color="#efff00"/></radialGradient><radialGradient cx="49.7244" cy="250.77054" r="158.8002" gradientUnits="userSpaceOnUse" id="color-10"><stop offset="0" stop-color="#d6dc81"/><stop offset="1" stop-color="#efff00"/></radialGradient></defs><g transform="translate(164.49103,78.8333)"><g data-paper-data="{&quot;isPaintingLayer&quot;:true}" stroke-linecap="butt" stroke-linejoin="miter" stroke-miterlimit="10" stroke-dasharray="" stroke-dashoffset="0" style="mix-blend-mode: normal"><path d="M-61.19178,447.02552c-2.37936,0.36475 -4.59798,-1.30774 -4.95544,-3.73562l-61.97339,-420.92261c-0.35746,-2.42788 1.2816,-4.69175 3.66096,-5.0565l626.84332,-96.09415c2.37936,-0.36475 4.59798,1.30774 4.95544,3.73562l61.97339,420.92261c0.35746,2.42788 -1.2816,4.69175 -3.66096,5.0565z" fill="url(#color-1)" fill-rule="nonzero" stroke="none" stroke-width="0"/><g stroke-width="4"><path d="M42.17412,417.46688c15.04841,-21.53825 28.32505,-11.08768 28.32505,-11.08768c14.24464,9.15358 21.69636,22.44885 21.69636,22.44885l-50.02141,-11.36116" fill="#e3a066" fill-rule="nonzero" stroke="url(#color-2)"/><path d="M69.6735,405.83844c14.24498,9.15213 22.52205,22.9896 22.52205,22.9896l-50.96126,-11.57463" fill="none" fill-rule="evenodd" stroke="url(#color-3)"/><path d="M26.12628,413.822c13.69966,-8.80957 32.36692,-6.79188 32.36692,-6.79188c14.24456,9.15393 17.6545,18.15304 17.6545,18.15304l-50.02142,-11.36116" fill="#e3a066" fill-rule="nonzero" stroke="url(#color-4)"/><path d="M58.4932,407.03012c14.24456,9.15393 17.6545,18.15304 17.6545,18.15304l-50.96127,-11.57462" fill="none" fill-rule="evenodd" stroke="url(#color-5)"/><path d="M131.77982,104.0299c9.28681,16.5329 -8.92979,29.92027 -8.92979,29.92027c0,0 -7.36039,8.93703 -1.55875,13.30245c-10.87428,48.28698 -35.96522,147.90907 -36.3475,149.59214c-0.54919,2.418 -17.52077,102.19777 -17.42514,104.20717c0.15987,3.33025 2.62873,6.87612 2.62873,6.87612c-4.74749,-1.71528 -7.5752,-7.36447 -7.5752,-7.36447c0.2421,4.50497 3.89123,8.27488 3.89123,8.27488c-3.58268,-1.28114 -7.33016,-1.83674 -8.98691,-2.20127c-1.50392,-0.33589 -21.84171,0.12388 -31.35021,7.1848l-45.39972,-10.31146c-0.90196,-0.20486 -29.95259,-49.08177 -20.37606,-96.81668c9.57653,-47.73491 32.93739,-90.51186 47.62834,-109.47398c17.0568,-22.02035 46.83355,-64.38913 49.44836,-69.6376c2.61433,-5.24631 6.44208,-28.12961 17.67364,-37.38137c7.80376,-6.42904 20.46316,-7.50976 28.28144,-5.73403c7.81646,1.77532 23.24037,10.38066 28.39755,19.56301" fill="#3e5766" fill-rule="nonzero" stroke="url(#color-6)"/><path d="M122.79306,150.35081c0,0 5.23063,11.97433 8.20499,25.50546c6.27681,30.82945 4.97054,74.16561 -10.80311,122.80088c-14.54786,44.85866 -25.13463,73.36303 -43.81256,93.63418c-2.56046,2.77917 3.60838,8.4929 3.60838,8.4929c-3.00717,-0.683 -7.08115,-1.22094 -7.08115,-1.22094c-0.55899,3.84762 5.42886,6.40767 5.42886,6.40767c-9.60593,2.26974 -10.79856,-4.31434 -10.79856,-4.31434c0.63033,3.83966 2.23177,6.11821 2.23177,6.11821c-2.44071,-0.39576 -7.20047,-7.2103 -7.20047,-7.2103c-0.92688,4.08087 3.89131,8.27452 3.89131,8.27452c-35.79421,-7.88546 -42.76267,-55.33074 -37.24181,-67.10993c5.52077,-11.77884 57.73505,-126.12606 65.38238,-152.36266c7.64594,-26.2388 28.18996,-39.01562 28.18996,-39.01562" fill="#fbf8ea" fill-rule="nonzero" stroke="url(#color-7)"/><path d="M96.92609,181.96837c8.82982,-33.30371 24.36403,-34.71565 24.36403,-34.71565l4.15451,9.45428c-11.71559,-1.11031 -28.6253,25.6662 -28.51855,25.26135" fill="#f0c579" fill-rule="nonzero" stroke="url(#color-8)"/><path d="M120.23897,137.96608c0,0 -2.43143,3.18826 -0.85374,5.84689c1.9635,3.30701 32.11981,52.64447 2.23757,150.23628c-24.48409,79.95186 -41.72216,93.39911 -44.00079,96.39898c-1.51708,1.99557 -4.05874,5.05938 2.36878,10.3341c0,0 -4.60205,-0.45794 -7.08155,-1.21914c0,0 0.92563,3.79405 5.42886,6.40767c0,0 -3.14785,2.72771 -10.71647,-1.53368" fill="none" fill-rule="evenodd" stroke="url(#color-9)"/><path d="M67.51938,401.05211c-0.0457,3.33327 2.62692,6.87571 2.62692,6.87571c-4.74749,-1.71528 -7.5752,-7.36447 -7.5752,-7.36447c0.2421,4.50497 3.89123,8.27487 3.89123,8.27487c-3.58268,-1.28114 -7.33016,-1.83674 -8.98511,-2.20086c-1.50392,-0.33589 -21.84351,0.12348 -31.35166,7.18449l-45.39828,-10.31113c-0.90196,-0.20486 -29.9544,-49.08217 -20.37786,-96.81708c9.57871,-47.73442 32.93956,-90.51136 47.62834,-109.47398c17.05897,-22.01986 46.83355,-64.38912 49.44837,-69.63759c2.61433,-5.24631 6.44388,-28.12921 17.67364,-37.38137c7.80592,-6.42855 20.46497,-7.50934 28.28144,-5.73403c7.81682,1.7754 23.5693,10.20193 28.39972,19.5635" fill="none" fill-rule="evenodd" stroke="url(#color-10)"/></g><g stroke="#fbff00" stroke-width="2.5"><path d="M111.24613,131.09238c-0.36513,-0.02943 17.26971,-5.28448 20.06558,-12.13198c2.13785,-5.23654 -2.36009,-12.57741 -0.44715,-13.69164c1.27499,-0.74428 2.43742,5.02064 6.51253,8.39334c4.36049,3.61127 10.44709,8.81007 21.47308,12.98334c11.02779,4.17368 20.14224,9.46339 23.30896,14.83104c3.1682,5.3695 4.2025,10.72972 4.2025,10.72972c0,0 -3.41836,-9.47982 -35.71044,-13.47434c-24.52256,-4.25926 -27.19694,-1.01198 -31.32844,0.47401c-4.13101,1.48382 2.40503,-7.28153 -8.07662,-8.11348" fill="#e3a066" fill-rule="nonzero"/><path d="M119.54415,132.14241c0,0 1.08829,-0.12274 2.98588,-0.18383c0.95081,-0.01851 2.10537,-0.04045 3.42999,-0.06778c0.66293,-0.00384 1.36947,-0.00764 2.11226,-0.01232c0.74394,0.00697 1.51512,0.1362 2.32687,0.18703c6.48118,0.57173 15.11166,1.5861 23.61836,3.37098c4.25433,0.88811 8.47426,1.96115 12.3618,3.21971c1.94574,0.62897 3.79899,1.32268 5.54106,2.02149c1.73281,0.73124 3.34583,1.48876 4.8025,2.25818c0.70538,0.42731 1.4355,0.74565 2.05052,1.18658c0.5974,0.46007 1.16568,0.89797 1.69878,1.30702c1.01735,0.89123 1.89177,1.66007 2.5261,2.39182c0.68311,0.67569 1.09744,1.31537 1.40554,1.72111c0.30106,0.41174 0.46402,0.62972 0.46402,0.62972c0,0 -0.19862,-0.18624 -0.57068,-0.53595c-0.37025,-0.34929 -0.89272,-0.87202 -1.65149,-1.43173c-0.7136,-0.60825 -1.67999,-1.2227 -2.77242,-1.91699c-1.13744,-0.63812 -2.4287,-1.30889 -3.80542,-2.12125c-1.41263,-0.74614 -2.9826,-1.48441 -4.67778,-2.19761c-1.70723,-0.6852 -3.52563,-1.36532 -5.43939,-1.98474c-3.82915,-1.24 -8.00267,-2.30021 -12.2169,-3.18111c-8.43225,-1.77025 -17.01639,-2.77978 -23.45707,-3.34611c-1.6158,-0.07713 -3.08591,-0.29455 -4.38883,-0.50474c-1.30636,-0.17834 -2.4457,-0.33202 -3.38423,-0.45944c-0.94017,-0.12021 -1.67961,-0.21378 -2.18504,-0.27698c-0.49599,-0.06296 -0.77444,-0.07307 -0.77444,-0.07307" fill="#8d6a4a" fill-rule="nonzero"/><path d="M111.24613,131.09238c-0.36513,-0.02943 17.26971,-5.28448 20.06558,-12.13198c2.13785,-5.23654 -2.36009,-12.57741 -0.44715,-13.69164c1.27499,-0.74428 2.43742,5.02064 6.51253,8.39334c4.36049,3.61127 10.44709,8.81007 21.47308,12.98334c11.02779,4.17368 20.14224,9.46339 23.30896,14.83104c3.1682,5.3695 4.2025,10.72972 4.2025,10.72972c0,0 -3.41836,-9.47982 -35.71044,-13.47434c-24.52256,-4.25926 -27.19694,-1.01198 -31.32844,0.47401c-4.13101,1.48382 2.40503,-7.28153 -8.07662,-8.11348z" fill="none" fill-rule="evenodd"/></g><g stroke="#fbff00" stroke-width="2.5"><path d="M103.53939,107.60278c0.82192,-2.31584 4.7514,-3.68912 9.99811,-2.25919c6.91761,2.16645 7.20332,5.98663 6.85627,7.39771c-0.4204,1.70894 -1.45253,4.08175 -9.51433,2.2507c-6.88564,-1.56391 -8.07828,-5.30819 -7.34004,-7.38922" fill="#e2e3e4" fill-rule="nonzero"/><path d="M112.29792,115.23792c0,0 -2.37543,-2.32687 -1.07891,-5.43106c1.29487,-3.09356 4.76445,-3.05333 5.98535,-2.65576c1.22059,0.3956 1.9795,1.69137 1.9795,1.69137c0,0 2.21258,2.61958 1.03395,4.67685c-1.17871,2.05762 -4.74692,2.28295 -4.74692,2.28295c0,0 -2.77885,-0.23657 -3.17298,-0.56435" fill="#2e374a" fill-rule="nonzero"/><path d="M103.50439,107.75683c0.82192,-2.31584 4.75139,-3.68913 9.99811,-2.2592c6.91761,2.16645 7.20325,5.987 6.85627,7.39771c-0.4204,1.70894 -1.45253,4.08175 -9.51433,2.2507c-6.88564,-1.56391 -8.07828,-5.30819 -7.34004,-7.38922z" fill="none" fill-rule="evenodd"/></g><g><path d="M81.5662,205.49166c0.31559,22.00665 -9.54983,64.58896 -25.81147,99.99642c-16.26127,35.40755 -60.89808,66.27752 -63.19205,63.84926c-2.29397,-2.42827 -0.49972,-6.15201 2.77877,-17.80541c3.28029,-11.65297 1.69649,-26.95496 -0.4008,-34.42364c-2.09764,-7.46877 2.83797,-22.24383 2.83797,-22.24383c0,0 31.59226,-76.69498 36.75119,-86.52319c6.64266,-12.65919 17.62516,-15.25177 17.62516,-15.25177" fill="#3e5766" fill-rule="nonzero" stroke="none" stroke-width="1"/><path d="M81.5662,205.49166c0.31559,22.00665 -9.54983,64.58896 -25.81147,99.99642c-16.26127,35.40755 -60.89808,66.27752 -63.19205,63.84926c-2.29397,-2.42827 -0.49972,-6.15201 2.77877,-17.80541c3.28029,-11.65297 1.69649,-26.95496 -0.4008,-34.42364c-2.09764,-7.46877 2.83797,-22.24383 2.83797,-22.24383c0,0 31.59226,-76.69498 36.75119,-86.52319c6.64266,-12.65919 17.62516,-15.25177 17.62516,-15.25177" fill="none" fill-rule="evenodd" stroke="#2e374a" stroke-width="0.5"/></g><text transform="translate(178.04486,69.45738) rotate(-8.54392) scale(0.91735,1.11097) skewX(0)" font-size="40" xml:space="preserve" fill="#fbf8ea" fill-rule="nonzero" stroke="none" stroke-width="1" stroke-linecap="butt" stroke-linejoin="miter" stroke-miterlimit="10" stroke-dasharray="" stroke-dashoffset="0" font-family="Bits and Bytes" font-weight="normal" text-anchor="start" style="mix-blend-mode: normal"><tspan x="0" dy="0">TURBO</tspan><tspan x="0" dy="46.150000000000006px">SPINNING </tspan><tspan x="0" dy="46.150000000000006px">PENGUIN</tspan></text><path d="M30.87805,137.02l-12.14717,33.04001l-183.22191,-67.36158l12.14717,-33.04001z" fill="#fbf8ea" fill-rule="nonzero" stroke="none" stroke-width="0"/><path d="M61.45793,76.46082l-20.59549,28.5486l-158.31493,-114.21134l20.59549,-28.54859z" fill="#fbf8ea" fill-rule="nonzero" stroke="none" stroke-width="0"/><path d="M183.61538,211.73429l2.15748,-35.13606l194.84534,11.96417l-2.15747,35.13605z" data-paper-data="{&quot;index&quot;:null}" fill="#fbf8ea" fill-rule="nonzero" stroke="none" stroke-width="0"/><path d="M154.40309,256.88517l11.57443,-33.245l184.35855,64.18545l-11.57442,33.24499z" data-paper-data="{&quot;index&quot;:null}" fill="#fbf8ea" fill-rule="nonzero" stroke="none" stroke-width="0"/></g></g></svg>